<svg xmlns="http://www.w3.org/2000/svg" viewBox="72.83 154.79 727.57 304.57"><defs><linearGradient id="grad" x1="0%" y1="0%" x2="100%" y2="100%"><stop offset="0%" stop-color="#00d9ff"/><stop offset="100%" stop-color="#00ff88"/></linearGradient><style>.cls-1,.cls-3,.cls-4{fill:none !important;}.cls-2,.cls-3,.cls-4{stroke:url(#grad);stroke-miterlimit:10;}.cls-3{stroke-linecap:round;}.cls-3,.cls-4{stroke-width:8px;}</style></defs><g id="nazwa_3" data-name="nazwa 3" fill="url(#grad)"><path d="M132,244.92a56.93,56.93,0,0,1-2.27,9.3,24.84,24.84,0,0,1-5.53,9.48,12.4,12.4,0,0,1-9.37,3.74h-38v15h44.31A24.58,24.58,0,0,0,132,280Z"/><rect x="166.18" y="202.8" width="15.01" height="79.66"/><polygon points="216.21 229.57 250.12 282.45 263.74 282.45 297.65 229.57 297.65 282.45 312.67 282.45 312.67 202.8 297.65 202.8 256.93 266.03 216.21 202.8 201.19 202.8 201.19 282.45 216.21 282.45 216.21 229.57"/><polygon points="441.5 282.45 441.5 202.8 426.49 202.8 385.76 266.03 345.04 202.8 330.02 202.8 330.02 282.45 345.04 282.45 345.04 229.57 378.95 282.45 392.57 282.45 426.49 229.57 426.49 282.45 441.5 282.45"/><polygon points="492.7 282.45 507.71 282.45 507.71 246.6 551.14 202.8 532.98 202.8 500.24 237.36 467.5 202.8 449.34 202.8 492.7 246.6 492.7 282.45"/><path class="cls-1" d="M390.05,342.22a16.22,16.22,0,0,0-7.54-2.09h-37v37.52h37a16.87,16.87,0,0,0,7.54-2,17.26,17.26,0,0,0,6.7-6.12,19,19,0,0,0,2.75-10.66,18.55,18.55,0,0,0-2.75-10.41A18.15,18.15,0,0,0,390.05,342.22Z"/><polygon class="cls-1" points="254.63 378.2 292.2 378.2 273.38 343.92 254.63 378.2"/><path class="cls-1" d="M775.12,345.89a18.58,18.58,0,0,0-5.42-4.2,14.12,14.12,0,0,0-6.63-1.67H736.49a16,16,0,0,0-9.74,3.12,15.49,15.49,0,0,0-5.79,8A60.78,60.78,0,0,0,721,388a17.25,17.25,0,0,0,3.26,5.21,19,19,0,0,0,5.42,4.23,14.33,14.33,0,0,0,6.85,1.69h26.58a13.91,13.91,0,0,0,6.63-1.69,19,19,0,0,0,5.42-4.23,14.14,14.14,0,0,0,3-5.21,59.4,59.4,0,0,0,0-36.85A14,14,0,0,0,775.12,345.89Z"/><path class="cls-1" d="M195.09,368.5A21.67,21.67,0,0,0,204.8,366a22.21,22.21,0,0,0,8.62-7.88q3.54-5.34,3.54-13.72,0-8-3.54-13.4a23.37,23.37,0,0,0-8.62-8.06,20.85,20.85,0,0,0-9.71-2.69H147.48V368.5Z"/><path class="cls-2" d="M265.17,329.83l-41.89,79.66h14.28l10.77-19.82h50.09l10.77,19.82h14.28l-41.82-79.66Zm-10.54,48.38,18.75-34.29,18.82,34.29Z"/><path class="cls-2" d="M404.48,335.34a27.15,27.15,0,0,0-13.55-5.4h-60.5v79.55h15.24V388h41.74l3.52-.33A23.45,23.45,0,0,0,404.15,383a26,26,0,0,0,8.13-10.66,34.27,34.27,0,0,0,2.75-13.5,33.45,33.45,0,0,0-2.6-13A26.41,26.41,0,0,0,404.48,335.34Zm-7.73,34.21a17.26,17.26,0,0,1-6.7,6.12,16.87,16.87,0,0,1-7.54,2h-37V340.13h37a16.22,16.22,0,0,1,7.54,2.09,18.15,18.15,0,0,1,6.7,6.26,18.55,18.55,0,0,1,2.75,10.41A19,19,0,0,1,396.75,369.55Z"/><path class="cls-2" d="M499,369.63a69,69,0,0,1-.69,9.16,46.83,46.83,0,0,1-2.16,9.21,15.65,15.65,0,0,1-3.23,5.26,20.05,20.05,0,0,1-5.45,4.26,14.07,14.07,0,0,1-6.78,1.73H460.44a14,14,0,0,1-6.78-1.73,20.05,20.05,0,0,1-5.45-4.26A15.65,15.65,0,0,1,445,388a52.51,52.51,0,0,1-2.12-9.21,64.76,64.76,0,0,1-.73-9.16v-39.8h-15v39.8a116.13,116.13,0,0,0,2.56,24.16q1.69,7,8.54,11.33a29.11,29.11,0,0,0,16,4.37H487a29,29,0,0,0,16-4.37,18.39,18.39,0,0,0,8.49-11.33q1.32-6.74,2.64-24.16v-39.8H499Z"/><polygon class="cls-2" points="528.26 340.07 559.97 340.07 559.97 409.49 574.99 409.49 574.99 340.07 606.7 340.07 606.7 329.83 528.26 329.83 528.26 340.07"/><polygon class="cls-2" points="613.51 340.07 645.23 340.07 645.23 409.49 660.24 409.49 660.24 340.07 691.96 340.07 691.96 329.83 613.51 329.83 613.51 340.07"/><path class="cls-2" d="M793.76,345.59q-1.68-7-8.53-11.47a28.43,28.43,0,0,0-15.86-4.45H730.19a28.43,28.43,0,0,0-15.86,4.45q-6.86,4.45-8.53,11.47a110.74,110.74,0,0,0-2.64,24,114.29,114.29,0,0,0,2.64,24.27q1.68,6.74,8.53,11.16a28.58,28.58,0,0,0,15.86,4.43h39.18a28.58,28.58,0,0,0,15.86-4.43q6.84-4.43,8.53-11.16a114.29,114.29,0,0,0,2.64-24.27A110.74,110.74,0,0,0,793.76,345.59ZM778.16,388a14.14,14.14,0,0,1-3,5.21,19,19,0,0,1-5.42,4.23,13.91,13.91,0,0,1-6.63,1.69H736.49a14.33,14.33,0,0,1-6.85-1.69,19,19,0,0,1-5.42-4.23A17.25,17.25,0,0,1,721,388a60.78,60.78,0,0,1,0-36.85,15.49,15.49,0,0,1,5.79-8,16,16,0,0,1,9.74-3.12h26.58a14.12,14.12,0,0,1,6.63,1.67,18.58,18.58,0,0,1,5.42,4.2,14,14,0,0,1,3,5.26,59.4,59.4,0,0,1,0,36.85Z"/><path d="M233.41,361.66A44,44,0,0,0,237,344.29a43,43,0,0,0-3.35-16.7,33.76,33.76,0,0,0-10.23-13.54q-6.88-5.52-17.44-6.95H147.48v13.11h47.61a20.85,20.85,0,0,1,9.71,2.69,23.37,23.37,0,0,1,8.62,8.06q3.54,5.37,3.54,13.4,0,8.38-3.54,13.72A22.21,22.21,0,0,1,204.8,366a21.67,21.67,0,0,1-9.71,2.54H147.48v41h.19V381.83h53.74l4.52-.43a30.15,30.15,0,0,0,17-6A33.51,33.51,0,0,0,233.41,361.66Z"/><line class="cls-3" x1="147.67" y1="409.49" x2="147.31" y2="182.99"/><circle class="cls-4" cx="147.49" cy="172.51" r="9.72"/><line class="cls-3" x1="132.35" y1="430.55" x2="131.98" y2="204.05"/><circle class="cls-4" cx="132.36" cy="441.64" r="9.72"/></g></svg>